<svg width="18" height="19" viewBox="0 0 18 19" fill="none" xmlns="http://www.w3.org/2000/svg">
<path d="M17.7961 15.1359L11.6461 8.9625L17.8102 2.86875C18.0633 2.61563 18.0633 2.20313 17.8102 1.95L16.057 0.1875C15.9352 0.065625 15.7711 0 15.5977 0C15.4242 0 15.2602 0.0703125 15.1383 0.1875L9.00234 6.2625L2.85703 0.192188C2.73516 0.0703128 2.57109 0.00468779 2.39766 0.00468779C2.22422 0.00468779 2.06016 0.0750003 1.93828 0.192188L0.189844 1.95469C-0.0632812 2.20781 -0.0632812 2.62031 0.189844 2.87344L6.35391 8.96719L0.208594 15.1359C0.0867188 15.2578 0.0164064 15.4219 0.0164064 15.5953C0.0164064 15.7688 0.0820313 15.9328 0.208594 16.0547L1.96172 17.8172C2.08828 17.9438 2.25234 18.0094 2.42109 18.0094C2.58516 18.0094 2.75391 17.9484 2.88047 17.8172L9.00234 11.6672L15.1289 17.8125C15.2555 17.9391 15.4195 18.0047 15.5883 18.0047C15.7523 18.0047 15.9211 17.9438 16.0477 17.8125L17.8008 16.05C17.9227 15.9281 17.993 15.7641 17.993 15.5906C17.9883 15.4219 17.918 15.2578 17.7961 15.1359Z" fill="#FF7F00"/>
</svg>
